<svg xmlns="http://www.w3.org/2000/svg" viewBox="0 0 900 840" role="img" aria-labelledby="title desc">
  <title id="title">BersihKilap Home Care visual</title>
  <desc id="desc">Bright home cleaning service scene with sofa, sparkle, and checklist card.</desc>
  <defs>
    <linearGradient id="bg" x1="0" x2="1" y1="0" y2="1">
      <stop offset="0" stop-color="#e9fbfa"/>
      <stop offset="0.58" stop-color="#ffffff"/>
      <stop offset="1" stop-color="#9ee8e0"/>
    </linearGradient>
    <linearGradient id="teal" x1="0" x2="1" y1="0" y2="1">
      <stop offset="0" stop-color="#17b9b0"/>
      <stop offset="1" stop-color="#07525a"/>
    </linearGradient>
  </defs>
  <rect width="900" height="840" fill="url(#bg)"/>
  <circle cx="760" cy="118" r="150" fill="#17b9b0" opacity=".18"/>
  <circle cx="132" cy="696" r="190" fill="#07525a" opacity=".1"/>
  <g transform="translate(112 116)">
    <rect x="54" y="380" width="610" height="176" rx="44" fill="#d7f5f2"/>
    <rect x="92" y="296" width="534" height="182" rx="46" fill="url(#teal)"/>
    <rect x="154" y="250" width="162" height="156" rx="36" fill="#ffffff"/>
    <rect x="404" y="250" width="162" height="156" rx="36" fill="#ffffff"/>
    <rect x="150" y="536" width="64" height="76" rx="20" fill="#07525a"/>
    <rect x="506" y="536" width="64" height="76" rx="20" fill="#07525a"/>
    <rect x="72" y="608" width="596" height="34" rx="17" fill="#0d272a" opacity=".16"/>
    <rect x="470" y="80" width="222" height="236" rx="26" fill="#ffffff" stroke="#bce8e3" stroke-width="6"/>
    <rect x="506" y="124" width="92" height="16" rx="8" fill="#07525a"/>
    <rect x="506" y="174" width="136" height="12" rx="6" fill="#bce8e3"/>
    <rect x="506" y="216" width="116" height="12" rx="6" fill="#bce8e3"/>
    <path d="M504 262l22 22 46-54" fill="none" stroke="#17b9b0" stroke-width="16" stroke-linecap="round" stroke-linejoin="round"/>
    <path d="M224 86l22 48 52 18-52 19-22 48-22-48-52-19 52-18z" fill="#17b9b0" opacity=".9"/>
    <path d="M136 184l13 28 30 11-30 11-13 28-13-28-30-11 30-11z" fill="#07525a" opacity=".7"/>
  </g>
</svg>
