<svg xmlns="http://www.w3.org/2000/svg" viewBox="0 0 900 840" role="img" aria-labelledby="title desc">
  <title id="title">Dapur Rendang Riau food landing visual</title>
  <desc id="desc">A warm landing page visual with rendang, rice box packaging, sambal, and premium hampers elements.</desc>
  <defs>
    <linearGradient id="table" x1="0" x2="1" y1="0" y2="1">
      <stop offset="0" stop-color="#fff4df"/>
      <stop offset="0.52" stop-color="#f3c877"/>
      <stop offset="1" stop-color="#24513a"/>
    </linearGradient>
    <linearGradient id="spice" x1="0" x2="1" y1="0" y2="1">
      <stop offset="0" stop-color="#d89b2b"/>
      <stop offset="0.45" stop-color="#b7432b"/>
      <stop offset="1" stop-color="#32160f"/>
    </linearGradient>
    <linearGradient id="box" x1="0" x2="1" y1="0" y2="1">
      <stop offset="0" stop-color="#ffffff"/>
      <stop offset="1" stop-color="#f0d7a5"/>
    </linearGradient>
    <filter id="shadow" x="-20%" y="-20%" width="140%" height="150%">
      <feDropShadow dx="0" dy="28" stdDeviation="24" flood-color="#261511" flood-opacity=".24"/>
    </filter>
  </defs>

  <rect width="900" height="840" fill="url(#table)"/>
  <circle cx="760" cy="112" r="148" fill="#fff4df" opacity=".45"/>
  <circle cx="124" cy="712" r="214" fill="#24513a" opacity=".36"/>
  <path d="M0 578c122-54 240-61 354-21 118 41 215 97 346 67 74-17 139-52 200-102v318H0z" fill="#261511" opacity=".22"/>

  <g opacity=".32">
    <circle cx="128" cy="134" r="10" fill="#d89b2b"/>
    <circle cx="178" cy="182" r="6" fill="#b7432b"/>
    <circle cx="742" cy="300" r="9" fill="#24513a"/>
    <circle cx="798" cy="356" r="6" fill="#fff4df"/>
    <path d="M154 246c38-29 70-29 96 0" fill="none" stroke="#24513a" stroke-width="14" stroke-linecap="round"/>
    <path d="M682 174c26-35 58-48 96-38" fill="none" stroke="#d89b2b" stroke-width="12" stroke-linecap="round"/>
  </g>

  <g filter="url(#shadow)">
    <g transform="translate(94 148)">
      <rect x="64" y="314" width="662" height="224" rx="22" fill="url(#box)"/>
      <rect x="98" y="348" width="198" height="142" rx="16" fill="#24513a"/>
      <path d="M122 372h150v92H122z" fill="#fff4df"/>
      <path d="M145 394h106M145 420h78M145 446h96" stroke="#b7432b" stroke-width="12" stroke-linecap="round"/>
      <rect x="326" y="350" width="166" height="140" rx="16" fill="#ffffff" opacity=".92"/>
      <path d="M350 382h118M350 416h84M350 450h104" stroke="#24513a" stroke-width="12" stroke-linecap="round"/>
      <rect x="520" y="350" width="156" height="140" rx="16" fill="#261511"/>
      <path d="M548 380h100M548 414h76M548 448h92" stroke="#d89b2b" stroke-width="12" stroke-linecap="round"/>
    </g>

    <g transform="translate(166 92)">
      <ellipse cx="292" cy="338" rx="286" ry="96" fill="#261511" opacity=".2"/>
      <ellipse cx="292" cy="300" rx="274" ry="132" fill="#f8ead0"/>
      <ellipse cx="292" cy="276" rx="218" ry="96" fill="#ffffff"/>
      <path d="M132 264c34-82 154-122 278-88 75 21 132 67 148 122-87 81-309 84-426-34z" fill="url(#spice)"/>
      <path d="M170 250c72 44 179 51 304 7 27 19 46 41 56 66-83 49-254 55-398-18 7-21 19-39 38-55z" fill="#8f2f1c"/>
      <circle cx="220" cy="278" r="34" fill="#4a1d13"/>
      <circle cx="324" cy="236" r="39" fill="#5a2416"/>
      <circle cx="432" cy="284" r="31" fill="#3b160f"/>
      <path d="M178 178c38-50 86-81 145-92" fill="none" stroke="#d89b2b" stroke-width="20" stroke-linecap="round"/>
      <path d="M542 190c-36-58-88-94-156-108" fill="none" stroke="#d89b2b" stroke-width="20" stroke-linecap="round"/>
      <path d="M186 366c56 28 130 43 220 44" fill="none" stroke="#24513a" stroke-width="18" stroke-linecap="round"/>
    </g>

    <g transform="translate(642 172)">
      <rect x="0" y="0" width="132" height="154" rx="18" fill="#fff4df"/>
      <rect x="18" y="20" width="96" height="78" rx="12" fill="#b7432b"/>
      <path d="M34 118h64M42 138h48" stroke="#24513a" stroke-width="10" stroke-linecap="round"/>
      <path d="M14 12l104 132" stroke="#d89b2b" stroke-width="8" stroke-linecap="round" opacity=".75"/>
    </g>
  </g>

  <g transform="translate(74 642)">
    <rect x="0" y="0" width="318" height="84" rx="14" fill="#ffffff" opacity=".9"/>
    <circle cx="44" cy="42" r="24" fill="#b7432b"/>
    <path d="M82 28h178M82 56h118" stroke="#24513a" stroke-width="12" stroke-linecap="round"/>
  </g>
</svg>
