<svg xmlns="http://www.w3.org/2000/svg" viewBox="0 0 900 840" role="img" aria-labelledby="title desc">
  <title id="title">Dentara Gigi Keluarga visual</title>
  <desc id="desc">Clean appointment triage dashboard with dental care cards and schedule panel.</desc>
  <defs>
    <linearGradient id="bg" x1="0" x2="1" y1="0" y2="1">
      <stop offset="0" stop-color="#ecfeff"/>
      <stop offset="0.62" stop-color="#ffffff"/>
      <stop offset="1" stop-color="#e0f2fe"/>
    </linearGradient>
  </defs>
  <rect width="900" height="840" fill="url(#bg)"/>
  <circle cx="132" cy="700" r="190" fill="#0891b2" opacity=".12"/>
  <circle cx="736" cy="122" r="132" fill="#2563eb" opacity=".1"/>
  <g transform="translate(94 100)">
    <rect x="0" y="0" width="474" height="596" rx="40" fill="#ffffff" stroke="#bae6fd" stroke-width="3"/>
    <text x="42" y="68" fill="#0891b2" font-family="Arial, sans-serif" font-size="30" font-weight="900">Appointment triage</text>
    <rect x="42" y="112" width="390" height="92" rx="24" fill="#ecfeff"/>
    <rect x="42" y="230" width="390" height="92" rx="24" fill="#f8fafc"/>
    <rect x="42" y="348" width="390" height="92" rx="24" fill="#ecfeff"/>
    <g fill="#0f172a" font-family="Arial, sans-serif" font-size="22" font-weight="800">
      <text x="82" y="166">Nyeri mendadak</text>
      <text x="82" y="284">Scaling rutin</text>
      <text x="82" y="402">Perawatan anak</text>
    </g>
    <g fill="#0891b2">
      <circle cx="384" cy="158" r="18"/>
      <circle cx="384" cy="276" r="18"/>
      <circle cx="384" cy="394" r="18"/>
    </g>
    <rect x="42" y="486" width="250" height="54" rx="18" fill="#cffafe"/>
    <text x="68" y="520" fill="#0e7490" font-family="Arial, sans-serif" font-size="18" font-weight="800">Booking WA</text>
  </g>
  <g transform="translate(610 208)">
    <rect width="184" height="304" rx="92" fill="#ffffff" stroke="#bae6fd" stroke-width="3"/>
    <path d="M58 62c28-30 82-30 110 0 34 38 12 150-36 198-13 13-24 7-29-10l-11-42-11 42c-5 17-16 23-29 10C4 212 24 100 58 62z" fill="#ecfeff" stroke="#0891b2" stroke-width="10"/>
    <circle cx="92" cy="128" r="20" fill="#0891b2" opacity=".22"/>
  </g>
</svg>
