<svg xmlns="http://www.w3.org/2000/svg" viewBox="0 0 900 840" role="img" aria-labelledby="title desc">
  <title id="title">Garasi EV Riau visual</title>
  <desc id="desc">Electric vehicle diagnostic bay with battery health panel and service checklist.</desc>
  <defs>
    <linearGradient id="bg" x1="0" x2="1" y1="0" y2="1">
      <stop offset="0" stop-color="#eef2ff"/>
      <stop offset="0.58" stop-color="#ffffff"/>
      <stop offset="1" stop-color="#dcfce7"/>
    </linearGradient>
  </defs>
  <rect width="900" height="840" fill="url(#bg)"/>
  <circle cx="722" cy="126" r="142" fill="#4f46e5" opacity=".15"/>
  <circle cx="144" cy="706" r="176" fill="#16a34a" opacity=".12"/>
  <g transform="translate(96 126)">
    <rect x="0" y="0" width="526" height="470" rx="38" fill="#ffffff" stroke="#c7d2fe" stroke-width="3"/>
    <rect x="58" y="84" width="374" height="136" rx="68" fill="#eef2ff"/>
    <circle cx="152" cy="250" r="44" fill="#4f46e5"/>
    <circle cx="340" cy="250" r="44" fill="#4f46e5"/>
    <rect x="186" y="170" width="180" height="54" rx="20" fill="#ffffff" stroke="#4f46e5" stroke-width="8"/>
    <path d="M244 134h76l-38 58h70l-96 112 28-82h-66z" fill="#16a34a"/>
    <rect x="58" y="342" width="410" height="62" rx="20" fill="#eef2ff"/>
    <text x="90" y="381" fill="#4f46e5" font-family="Arial, sans-serif" font-size="22" font-weight="900">Battery health 92%</text>
  </g>
  <g transform="translate(650 232)">
    <rect width="166" height="300" rx="28" fill="#ffffff" stroke="#c7d2fe" stroke-width="3"/>
    <text x="30" y="54" fill="#4f46e5" font-family="Arial, sans-serif" font-size="20" font-weight="900">Checklist</text>
    <rect x="30" y="86" width="106" height="22" rx="11" fill="#dcfce7"/>
    <rect x="30" y="132" width="86" height="22" rx="11" fill="#eef2ff"/>
    <rect x="30" y="178" width="118" height="22" rx="11" fill="#dcfce7"/>
    <rect x="30" y="224" width="96" height="22" rx="11" fill="#eef2ff"/>
  </g>
</svg>
