<svg xmlns="http://www.w3.org/2000/svg" viewBox="0 0 900 840" role="img" aria-labelledby="title desc">
  <title id="title">Loka Batik Pekanbaru visual</title>
  <desc id="desc">Editorial batik lookbook with fabric panels and boutique display.</desc>
  <defs>
    <linearGradient id="bg" x1="0" x2="1" y1="0" y2="1">
      <stop offset="0" stop-color="#12183e"/>
      <stop offset="0.58" stop-color="#5c285e"/>
      <stop offset="1" stop-color="#d7a64a"/>
    </linearGradient>
    <pattern id="batik" width="86" height="86" patternUnits="userSpaceOnUse">
      <rect width="86" height="86" fill="#7d315f"/>
      <path d="M43 10c21 0 34 12 34 33S64 76 43 76 9 64 9 43 22 10 43 10z" fill="none" stroke="#f3d28d" stroke-width="6"/>
      <circle cx="43" cy="43" r="13" fill="#1d2555"/>
      <path d="M0 43h22M64 43h22M43 0v22M43 64v22" stroke="#f3d28d" stroke-width="5"/>
    </pattern>
  </defs>
  <rect width="900" height="840" fill="url(#bg)"/>
  <circle cx="730" cy="112" r="150" fill="#f3d28d" opacity=".2"/>
  <circle cx="118" cy="716" r="184" fill="#12183e" opacity=".36"/>
  <g transform="translate(130 96)">
    <rect x="34" y="36" width="292" height="560" rx="34" fill="url(#batik)" opacity=".98"/>
    <rect x="366" y="104" width="260" height="424" rx="130" fill="#f6efe7"/>
    <path d="M486 164c64 34 102 112 96 196-5 75-45 133-96 154-51-21-91-79-96-154-6-84 32-162 96-196z" fill="#1d2555"/>
    <path d="M448 212c27 21 49 21 76 0v235c-22 24-54 24-76 0z" fill="#8d345f"/>
    <path d="M409 576h154c36 0 65 29 65 65v22H344v-22c0-36 29-65 65-65z" fill="#f3d28d"/>
    <rect x="92" y="640" width="480" height="58" rx="29" fill="#fff8ec" opacity=".92"/>
    <rect x="132" y="660" width="148" height="14" rx="7" fill="#1d2555"/>
    <rect x="310" y="660" width="202" height="14" rx="7" fill="#8d345f"/>
  </g>
  <g fill="#f3d28d" opacity=".8">
    <circle cx="734" cy="614" r="13"/>
    <circle cx="782" cy="660" r="8"/>
    <circle cx="706" cy="690" r="10"/>
  </g>
</svg>
