<svg xmlns="http://www.w3.org/2000/svg" viewBox="0 0 900 840" role="img" aria-labelledby="title desc">
  <title id="title">Mekar Florist and Hampers visual</title>
  <desc id="desc">Florist event catalog with bouquet, hampers box, occasion cards, and delivery note.</desc>
  <defs>
    <linearGradient id="bg" x1="0" x2="1" y1="0" y2="1">
      <stop offset="0" stop-color="#fff1f2"/>
      <stop offset="0.55" stop-color="#ffffff"/>
      <stop offset="1" stop-color="#ecfdf5"/>
    </linearGradient>
    <linearGradient id="rose" x1="0" x2="1" y1="0" y2="1">
      <stop offset="0" stop-color="#fb7185"/>
      <stop offset="1" stop-color="#be123c"/>
    </linearGradient>
    <linearGradient id="leaf" x1="0" x2="1" y1="0" y2="1">
      <stop offset="0" stop-color="#34d399"/>
      <stop offset="1" stop-color="#0f766e"/>
    </linearGradient>
  </defs>
  <rect width="900" height="840" fill="url(#bg)"/>
  <circle cx="742" cy="144" r="162" fill="#fb7185" opacity=".18"/>
  <circle cx="152" cy="694" r="190" fill="#0f766e" opacity=".12"/>
  <g transform="translate(124 90)">
    <rect x="34" y="412" width="574" height="158" rx="44" fill="#ffffff" stroke="#fecdd3" stroke-width="3"/>
    <rect x="118" y="294" width="420" height="250" rx="48" fill="#fff1f2"/>
    <path d="M326 474c-90-84-118-178-84-278 72 34 108 106 84 278Z" fill="url(#leaf)" opacity=".88"/>
    <path d="M346 472c18-118 74-194 168-228 16 92-32 178-168 228Z" fill="url(#leaf)" opacity=".76"/>
    <path d="M288 474c-116-32-184-92-204-180 90-4 164 54 204 180Z" fill="url(#leaf)" opacity=".72"/>
    <circle cx="254" cy="232" r="62" fill="url(#rose)"/>
    <circle cx="382" cy="206" r="72" fill="#fda4af"/>
    <circle cx="498" cy="282" r="58" fill="#be123c"/>
    <circle cx="186" cy="316" r="54" fill="#fb7185"/>
    <path d="M198 548h280l-52 142H250z" fill="#f9a8d4"/>
    <path d="M198 548h280" stroke="#be123c" stroke-width="16" stroke-linecap="round"/>
  </g>
  <g transform="translate(570 332)">
    <rect width="230" height="260" rx="30" fill="#ffffff" stroke="#fecdd3" stroke-width="3"/>
    <text x="30" y="54" fill="#be123c" font-family="Arial, sans-serif" font-size="21" font-weight="700">Occasion</text>
    <rect x="30" y="84" width="170" height="40" rx="14" fill="#fff1f2"/>
    <rect x="30" y="142" width="170" height="40" rx="14" fill="#f0fdf4"/>
    <rect x="30" y="200" width="170" height="40" rx="14" fill="#fff1f2"/>
    <text x="52" y="110" fill="#be123c" font-family="Arial, sans-serif" font-size="16" font-weight="700">Wisuda</text>
    <text x="52" y="168" fill="#0f766e" font-family="Arial, sans-serif" font-size="16" font-weight="700">Birthday</text>
    <text x="52" y="226" fill="#be123c" font-family="Arial, sans-serif" font-size="16" font-weight="700">Corporate</text>
  </g>
  <g transform="translate(122 654)">
    <rect width="330" height="86" rx="28" fill="#ffffff" stroke="#fecdd3" stroke-width="3"/>
    <rect x="34" y="24" width="66" height="42" rx="12" fill="#be123c"/>
    <path d="M34 38h66" stroke="#ffffff" stroke-width="6" opacity=".75"/>
    <path d="M67 24v42" stroke="#ffffff" stroke-width="6" opacity=".75"/>
    <text x="126" y="40" fill="#0f172a" font-family="Arial, sans-serif" font-size="19" font-weight="700">Preview sebelum kirim</text>
    <text x="126" y="64" fill="#64748b" font-family="Arial, sans-serif" font-size="15">Same-day terbatas</text>
  </g>
</svg>
