<svg xmlns="http://www.w3.org/2000/svg" viewBox="0 0 900 840" role="img" aria-labelledby="title desc">
  <title id="title">Rakara Custom Furniture visual</title>
  <desc id="desc">Custom furniture quote studio with room sketch, material swatches, and measurement board.</desc>
  <defs>
    <linearGradient id="bg" x1="0" x2="1" y1="0" y2="1">
      <stop offset="0" stop-color="#faf5ff"/>
      <stop offset="0.58" stop-color="#ffffff"/>
      <stop offset="1" stop-color="#fef3c7"/>
    </linearGradient>
  </defs>
  <rect width="900" height="840" fill="url(#bg)"/>
  <circle cx="742" cy="118" r="132" fill="#7e22ce" opacity=".13"/>
  <circle cx="132" cy="704" r="176" fill="#ca8a04" opacity=".14"/>
  <g transform="translate(88 104)">
    <rect x="0" y="0" width="540" height="554" rx="40" fill="#ffffff" stroke="#e9d5ff" stroke-width="3"/>
    <text x="42" y="66" fill="#7e22ce" font-family="Arial, sans-serif" font-size="30" font-weight="900">Quote studio</text>
    <rect x="54" y="112" width="214" height="344" rx="24" fill="#faf5ff"/>
    <rect x="300" y="112" width="162" height="118" rx="18" fill="#fef3c7"/>
    <rect x="300" y="256" width="162" height="86" rx="18" fill="#ede9fe"/>
    <rect x="300" y="368" width="162" height="88" rx="18" fill="#f8fafc"/>
    <path d="M92 406V182h138v224" fill="none" stroke="#7e22ce" stroke-width="16" stroke-linejoin="round"/>
    <rect x="116" y="244" width="90" height="104" rx="12" fill="#ffffff" stroke="#ca8a04" stroke-width="8"/>
  </g>
  <g transform="translate(644 210)">
    <rect width="164" height="306" rx="26" fill="#ffffff" stroke="#e9d5ff" stroke-width="3"/>
    <text x="28" y="52" fill="#7e22ce" font-family="Arial, sans-serif" font-size="20" font-weight="900">Material</text>
    <circle cx="58" cy="110" r="28" fill="#7e22ce" opacity=".82"/>
    <circle cx="110" cy="110" r="28" fill="#ca8a04" opacity=".68"/>
    <circle cx="58" cy="176" r="28" fill="#334155" opacity=".82"/>
    <circle cx="110" cy="176" r="28" fill="#e2e8f0"/>
    <rect x="30" y="238" width="104" height="24" rx="12" fill="#faf5ff"/>
  </g>
</svg>
