<svg xmlns="http://www.w3.org/2000/svg" viewBox="0 0 900 840" role="img" aria-labelledby="title desc">
  <title id="title">Sagara Frozen Seafood visual</title>
  <desc id="desc">Cold-chain frozen seafood catalog with freezer stock cards and delivery zone indicators.</desc>
  <defs>
    <linearGradient id="bg" x1="0" x2="1" y1="0" y2="1">
      <stop offset="0" stop-color="#e0f2fe"/>
      <stop offset="0.62" stop-color="#ffffff"/>
      <stop offset="1" stop-color="#ecfeff"/>
    </linearGradient>
  </defs>
  <rect width="900" height="840" fill="url(#bg)"/>
  <circle cx="730" cy="128" r="144" fill="#0369a1" opacity=".13"/>
  <circle cx="130" cy="710" r="184" fill="#0891b2" opacity=".11"/>
  <g transform="translate(92 108)">
    <rect width="486" height="560" rx="40" fill="#ffffff" stroke="#bae6fd" stroke-width="3"/>
    <text x="42" y="68" fill="#0369a1" font-family="Arial, sans-serif" font-size="30" font-weight="900">Freezer stock</text>
    <rect x="42" y="112" width="402" height="112" rx="24" fill="#e0f2fe"/>
    <rect x="42" y="252" width="402" height="112" rx="24" fill="#ecfeff"/>
    <rect x="42" y="392" width="402" height="112" rx="24" fill="#e0f2fe"/>
    <g fill="#0f172a" font-family="Arial, sans-serif" font-size="24" font-weight="900">
      <text x="84" y="176">Udang kupas</text>
      <text x="84" y="316">Mix seafood</text>
      <text x="84" y="456">Reseller box</text>
    </g>
    <g fill="#0369a1">
      <circle cx="382" cy="168" r="22"/>
      <circle cx="382" cy="308" r="22"/>
      <circle cx="382" cy="448" r="22"/>
    </g>
  </g>
  <g transform="translate(620 214)">
    <rect width="188" height="316" rx="30" fill="#ffffff" stroke="#bae6fd" stroke-width="3"/>
    <text x="34" y="54" fill="#0369a1" font-family="Arial, sans-serif" font-size="20" font-weight="900">-18 C</text>
    <path d="M94 92v132" stroke="#0369a1" stroke-width="12" stroke-linecap="round"/>
    <path d="M42 158h104M58 112l72 92M130 112l-72 92" stroke="#7dd3fc" stroke-width="10" stroke-linecap="round"/>
    <rect x="32" y="250" width="124" height="28" rx="14" fill="#e0f2fe"/>
  </g>
</svg>
