<svg xmlns="http://www.w3.org/2000/svg" viewBox="0 0 900 840" role="img" aria-labelledby="title desc">
  <title id="title">Studio Yoga Senja visual</title>
  <desc id="desc">Calm wellness studio scene with yoga mat, class schedule, and soft morning light.</desc>
  <defs>
    <linearGradient id="bg" x1="0" x2="1" y1="0" y2="1">
      <stop offset="0" stop-color="#ecfdf5"/>
      <stop offset="0.56" stop-color="#ffffff"/>
      <stop offset="1" stop-color="#dbeafe"/>
    </linearGradient>
    <linearGradient id="mat" x1="0" x2="1" y1="0" y2="1">
      <stop offset="0" stop-color="#0f766e"/>
      <stop offset="1" stop-color="#134e4a"/>
    </linearGradient>
    <linearGradient id="sun" x1="0" x2="1" y1="0" y2="1">
      <stop offset="0" stop-color="#fde68a"/>
      <stop offset="1" stop-color="#fb7185"/>
    </linearGradient>
  </defs>
  <rect width="900" height="840" fill="url(#bg)"/>
  <circle cx="744" cy="126" r="138" fill="url(#sun)" opacity=".5"/>
  <circle cx="146" cy="704" r="190" fill="#0f766e" opacity=".1"/>
  <g transform="translate(100 96)">
    <rect x="34" y="68" width="528" height="356" rx="44" fill="#ffffff" stroke="#ccfbf1" stroke-width="3"/>
    <rect x="82" y="118" width="170" height="246" rx="86" fill="#d1fae5"/>
    <rect x="304" y="118" width="170" height="246" rx="86" fill="#dbeafe"/>
    <path d="M86 424h470" stroke="#99f6e4" stroke-width="18" stroke-linecap="round"/>
    <path d="M122 188c38 34 88 34 126 0" fill="none" stroke="#0f766e" stroke-width="16" stroke-linecap="round"/>
    <path d="M344 196c36 30 82 30 118 0" fill="none" stroke="#2563eb" stroke-width="16" stroke-linecap="round"/>
    <rect x="98" y="452" width="474" height="98" rx="49" fill="url(#mat)"/>
    <rect x="136" y="486" width="264" height="14" rx="7" fill="#ccfbf1" opacity=".75"/>
    <rect x="136" y="514" width="180" height="14" rx="7" fill="#ffffff" opacity=".42"/>
  </g>
  <g transform="translate(568 312)">
    <rect x="0" y="0" width="234" height="288" rx="28" fill="#ffffff" stroke="#99f6e4" stroke-width="3"/>
    <text x="30" y="54" fill="#0f766e" font-family="Arial, sans-serif" font-size="22" font-weight="700">Jadwal</text>
    <rect x="30" y="84" width="174" height="46" rx="14" fill="#ecfdf5"/>
    <rect x="30" y="148" width="174" height="46" rx="14" fill="#f8fafc"/>
    <rect x="30" y="212" width="174" height="46" rx="14" fill="#ecfdf5"/>
    <text x="52" y="114" fill="#134e4a" font-family="Arial, sans-serif" font-size="18" font-weight="700">07.00 Flow</text>
    <text x="52" y="178" fill="#475569" font-family="Arial, sans-serif" font-size="18" font-weight="700">17.30 Calm</text>
    <text x="52" y="242" fill="#134e4a" font-family="Arial, sans-serif" font-size="18" font-weight="700">19.00 Breath</text>
  </g>
  <g transform="translate(146 650)">
    <rect width="314" height="86" rx="26" fill="#ffffff" stroke="#ccfbf1" stroke-width="3"/>
    <circle cx="52" cy="43" r="24" fill="#0f766e"/>
    <path d="M41 44l8 8 18-22" fill="none" stroke="#ffffff" stroke-width="8" stroke-linecap="round" stroke-linejoin="round"/>
    <text x="92" y="39" fill="#0f172a" font-family="Arial, sans-serif" font-size="20" font-weight="700">Kelas kecil</text>
    <text x="92" y="64" fill="#64748b" font-family="Arial, sans-serif" font-size="15">Maks. 10 peserta</text>
  </g>
</svg>
