<svg xmlns="http://www.w3.org/2000/svg" viewBox="0 0 900 840" role="img" aria-labelledby="title desc">
  <title id="title">Terra Microgreens visual</title>
  <desc id="desc">Urban farm harvest calendar with tray greens, subscription boxes, and weekly harvest notes.</desc>
  <defs>
    <linearGradient id="bg" x1="0" x2="1" y1="0" y2="1">
      <stop offset="0" stop-color="#f0fdf4"/>
      <stop offset="0.6" stop-color="#ffffff"/>
      <stop offset="1" stop-color="#dcfce7"/>
    </linearGradient>
  </defs>
  <rect width="900" height="840" fill="url(#bg)"/>
  <circle cx="738" cy="126" r="140" fill="#16a34a" opacity=".14"/>
  <circle cx="132" cy="714" r="186" fill="#15803d" opacity=".12"/>
  <g transform="translate(96 104)">
    <rect width="512" height="560" rx="40" fill="#ffffff" stroke="#bbf7d0" stroke-width="3"/>
    <text x="42" y="68" fill="#16a34a" font-family="Arial, sans-serif" font-size="30" font-weight="900">Harvest calendar</text>
    <g transform="translate(42 112)">
      <rect width="428" height="320" rx="26" fill="#f0fdf4"/>
      <g fill="#16a34a">
        <path d="M68 240c20-92 44-92 64 0"/>
        <path d="M148 240c20-126 54-126 74 0"/>
        <path d="M250 240c18-104 48-104 66 0"/>
        <path d="M336 240c16-74 40-74 56 0"/>
      </g>
      <rect x="42" y="248" width="344" height="34" rx="17" fill="#166534"/>
    </g>
    <rect x="42" y="472" width="174" height="38" rx="19" fill="#dcfce7"/>
    <rect x="238" y="472" width="158" height="38" rx="19" fill="#f0fdf4"/>
  </g>
  <g transform="translate(642 220)">
    <rect width="158" height="292" rx="28" fill="#ffffff" stroke="#bbf7d0" stroke-width="3"/>
    <text x="30" y="54" fill="#16a34a" font-family="Arial, sans-serif" font-size="20" font-weight="900">Jumat</text>
    <rect x="30" y="88" width="98" height="40" rx="14" fill="#dcfce7"/>
    <rect x="30" y="150" width="98" height="40" rx="14" fill="#f0fdf4"/>
    <rect x="30" y="212" width="98" height="40" rx="14" fill="#dcfce7"/>
  </g>
</svg>
